# xmcd
#
# Track frame offsets: 
#        150
#        14299
#        26548
#        37079
#        51525
#        60175
#        73649
#        86428
#        102627
#        114630
#
# Disc length: 1718 seconds
#
# Revision: 0
# Processed by: cddbd v1.5.1PL2 Copyright (c) Steve Scherf et al.
# Submitted via: ExactAudioCopy v0.95a5
#
DISCID=8406b40a
DTITLE=Beth Garner - much later for you
DYEAR=2001
DGENRE=
TTITLE0=Much Later For You
TTITLE1=My Baby's Gone
TTITLE2=Pleasin' You
TTITLE3=I'm The One
TTITLE4=Doin' Me Wrong
TTITLE5=Love Me
TTITLE6=Be True All The Time
TTITLE7=Just Can't Please You
TTITLE8=That's Alright
TTITLE9=I'm A Stranger
EXTD=
EXTT0=
EXTT1=
EXTT2=
EXTT3=
EXTT4=
EXTT5=
EXTT6=
EXTT7=
EXTT8=
EXTT9=
PLAYORDER=
